<svg width="24" height="24" viewBox="0 0 24 24" fill="none" xmlns="http://www.w3.org/2000/svg">
<path d="M0 2.66667V21.3333C0 22.8 1.2 24 2.66667 24H21.3333C22.8 24 24 22.8 24 21.3333V2.66667C24 1.2 22.8 0 21.3333 0H2.66667C1.2 0 0 1.2 0 2.66667ZM10.6667 21.3333H4C3.26667 21.3333 2.66667 20.7333 2.66667 20V13.3333H9.33333C10.0667 13.3333 10.6667 13.9333 10.6667 14.6667V21.3333ZM9.33333 10.6667H2.66667V4C2.66667 3.26667 3.26667 2.66667 4 2.66667H10.6667V9.33333C10.6667 10.0667 10.0667 10.6667 9.33333 10.6667ZM20 21.3333H13.3333V14.6667C13.3333 13.9333 13.9333 13.3333 14.6667 13.3333H21.3333V20C21.3333 20.7333 20.7333 21.3333 20 21.3333ZM21.3333 10.6667H14.6667C13.9333 10.6667 13.3333 10.0667 13.3333 9.33333V2.66667H20C20.7333 2.66667 21.3333 3.26667 21.3333 4V10.6667Z" fill="#DFE6EE"/>
</svg>
