<svg width="39" height="48" viewBox="0 0 39 48" fill="none" xmlns="http://www.w3.org/2000/svg">
<path d="M9.6 36C9.12533 36 8.66131 36.1408 8.26663 36.4045C7.87195 36.6682 7.56434 37.043 7.38269 37.4816C7.20104 37.9201 7.15351 38.4027 7.24612 38.8682C7.33872 39.3338 7.5673 39.7614 7.90294 40.0971C8.23859 40.4327 8.66623 40.6613 9.13178 40.7539C9.59734 40.8465 10.0799 40.799 10.5184 40.6173C10.957 40.4357 11.3318 40.128 11.5955 39.7334C11.8592 39.3387 12 38.8747 12 38.4C12 37.7635 11.7471 37.153 11.2971 36.7029C10.847 36.2529 10.2365 36 9.6 36ZM9.6 21.6C9.12533 21.6 8.66131 21.7408 8.26663 22.0045C7.87195 22.2682 7.56434 22.643 7.38269 23.0816C7.20104 23.5201 7.15351 24.0027 7.24612 24.4682C7.33872 24.9338 7.5673 25.3614 7.90294 25.6971C8.23859 26.0327 8.66623 26.2613 9.13178 26.3539C9.59734 26.4465 10.0799 26.399 10.5184 26.2173C10.957 26.0357 11.3318 25.728 11.5955 25.3334C11.8592 24.9387 12 24.4747 12 24C12 23.3635 11.7471 22.753 11.2971 22.3029C10.847 21.8529 10.2365 21.6 9.6 21.6ZM9.6 7.2C9.12533 7.2 8.66131 7.34076 8.26663 7.60447C7.87195 7.86819 7.56434 8.24302 7.38269 8.68156C7.20104 9.1201 7.15351 9.60266 7.24612 10.0682C7.33872 10.5338 7.5673 10.9614 7.90294 11.2971C8.23859 11.6327 8.66623 11.8613 9.13178 11.9539C9.59734 12.0465 10.0799 11.999 10.5184 11.8173C10.957 11.6357 11.3318 11.328 11.5955 10.9334C11.8592 10.5387 12 10.0747 12 9.6C12 8.96348 11.7471 8.35303 11.2971 7.90294C10.847 7.45286 10.2365 7.2 9.6 7.2ZM38.4 7.2C38.4 5.29044 37.6414 3.45909 36.2912 2.10883C34.9409 0.758569 33.1096 0 31.2 0H7.2C5.29044 0 3.45909 0.758569 2.10883 2.10883C0.758569 3.45909 0 5.29044 0 7.2V12C0.0105855 13.7761 0.677307 15.4857 1.872 16.8C0.677307 18.1143 0.0105855 19.8239 0 21.6V26.4C0.0105855 28.1761 0.677307 29.8857 1.872 31.2C0.677307 32.5143 0.0105855 34.2239 0 36V40.8C0 42.7096 0.758569 44.5409 2.10883 45.8912C3.45909 47.2414 5.29044 48 7.2 48H31.2C33.1096 48 34.9409 47.2414 36.2912 45.8912C37.6414 44.5409 38.4 42.7096 38.4 40.8V36C38.3894 34.2239 37.7227 32.5143 36.528 31.2C37.7227 29.8857 38.3894 28.1761 38.4 26.4V21.6C38.3894 19.8239 37.7227 18.1143 36.528 16.8C37.7227 15.4857 38.3894 13.7761 38.4 12V7.2ZM33.6 40.8C33.6 41.4365 33.3471 42.047 32.8971 42.4971C32.447 42.9471 31.8365 43.2 31.2 43.2H7.2C6.56348 43.2 5.95303 42.9471 5.50294 42.4971C5.05286 42.047 4.8 41.4365 4.8 40.8V36C4.8 35.3635 5.05286 34.753 5.50294 34.3029C5.95303 33.8529 6.56348 33.6 7.2 33.6H31.2C31.8365 33.6 32.447 33.8529 32.8971 34.3029C33.3471 34.753 33.6 35.3635 33.6 36V40.8ZM33.6 26.4C33.6 27.0365 33.3471 27.647 32.8971 28.0971C32.447 28.5471 31.8365 28.8 31.2 28.8H7.2C6.56348 28.8 5.95303 28.5471 5.50294 28.0971C5.05286 27.647 4.8 27.0365 4.8 26.4V21.6C4.8 20.9635 5.05286 20.353 5.50294 19.9029C5.95303 19.4529 6.56348 19.2 7.2 19.2H31.2C31.8365 19.2 32.447 19.4529 32.8971 19.9029C33.3471 20.353 33.6 20.9635 33.6 21.6V26.4ZM33.6 12C33.6 12.6365 33.3471 13.247 32.8971 13.6971C32.447 14.1471 31.8365 14.4 31.2 14.4H7.2C6.56348 14.4 5.95303 14.1471 5.50294 13.6971C5.05286 13.247 4.8 12.6365 4.8 12V7.2C4.8 6.56348 5.05286 5.95303 5.50294 5.50294C5.95303 5.05286 6.56348 4.8 7.2 4.8H31.2C31.8365 4.8 32.447 5.05286 32.8971 5.50294C33.3471 5.95303 33.6 6.56348 33.6 7.2V12Z" fill="#E2E8F0"/>
</svg>
