<svg width="48" height="48" viewBox="0 0 48 48" fill="none" xmlns="http://www.w3.org/2000/svg">
<path d="M40.1426 30.3384C38.1194 33.6096 31.6586 36.0048 24.0002 36.0048C16.3418 36.0048 9.881 33.6096 7.8554 30.3384C7.4282 29.6424 7.2002 30.0144 7.2002 30.3552V35.16C7.2002 39.816 14.7218 44.64 24.0002 44.64C33.2786 44.64 40.8002 39.816 40.8002 35.1624V30.3576C40.8002 30.0144 40.5698 29.6424 40.1426 30.3384ZM40.169 18.06C38.177 20.952 31.6922 23.076 24.0002 23.076C16.3082 23.076 9.821 20.952 7.829 18.06C7.4186 17.4648 7.2002 17.7888 7.2002 18.0552V23.712C7.2002 27.9408 14.7218 31.3656 24.0002 31.3656C33.2786 31.3656 40.8002 27.9384 40.8002 23.712V18.0552C40.8002 17.7888 40.5794 17.4648 40.169 18.06ZM24.0002 2.40002C14.7218 2.40002 7.2002 5.23202 7.2002 8.71922V11.7432C7.2002 15.4416 14.7218 18.4416 24.0002 18.4416C33.2786 18.4416 40.8002 15.4416 40.8002 11.7432V8.71922C40.8002 5.23202 33.2786 2.40002 24.0002 2.40002Z" fill="#BE41EA"/>
</svg>
