<svg width="50" height="63" viewBox="0 0 50 63" fill="none" xmlns="http://www.w3.org/2000/svg">
<path d="M48.5852 41.2606C45.6292 46.04 36.1898 49.5394 25.0005 49.5394C13.8113 49.5394 4.37183 46.04 1.41235 41.2606C0.788195 40.2437 0.455078 40.7872 0.455078 41.2852V48.3052C0.455078 55.1078 11.4444 62.1558 25.0005 62.1558C38.5566 62.1558 49.546 55.1078 49.546 48.3087V41.2887C49.546 40.7872 49.2094 40.2437 48.5852 41.2606ZM48.6238 23.3214C45.7134 27.5467 36.2388 30.65 25.0005 30.65C13.7622 30.65 4.28417 27.5467 1.37378 23.3214C0.774169 22.4518 0.455078 22.9252 0.455078 23.3144V31.5792C0.455078 37.7576 11.4444 42.7614 25.0005 42.7614C38.5566 42.7614 49.546 37.7541 49.546 31.5792V23.3144C49.546 22.9252 49.2234 22.4518 48.6238 23.3214ZM25.0005 0.441528C11.4444 0.441528 0.455078 4.57919 0.455078 9.67412V14.0923C0.455078 19.4958 11.4444 23.8789 25.0005 23.8789C38.5566 23.8789 49.546 19.4958 49.546 14.0923V9.67412C49.546 4.57919 38.5566 0.441528 25.0005 0.441528Z" fill="#E2E8F0"/>
</svg>
