<svg width="50" height="72" viewBox="0 0 50 72" fill="none" xmlns="http://www.w3.org/2000/svg">
<path d="M49.7398 57.5182L43.2995 16.612C43.1709 15.8552 42.5369 15.2883 41.7683 15.2883C41.3417 15.2883 40.956 15.4636 40.6726 15.75L0.0644531 57.5182L22.5352 70.4571C23.1869 70.8399 23.97 71.0649 24.8028 71.0649C25.6326 71.0649 26.4128 70.8399 27.0849 70.4484L49.7398 57.5182ZM11.3729 1.77077C11.1099 1.27402 10.5985 0.935059 10.0054 0.935059C9.23101 0.935059 8.58815 1.51655 8.47127 2.28214L1.70958 46.7328L18.6489 15.7208L11.3758 1.77954L11.3729 1.77077ZM31.4797 21.8221L26.2755 11.6474C26.0096 11.139 25.4953 10.8 24.9021 10.8C24.3089 10.8 23.7946 11.139 23.5317 11.6386L23.5287 11.6474L0.67809 53.4857L31.4797 21.8221Z" fill="#E2E8F0"/>
</svg>
