<svg width="48" height="33" viewBox="0 0 48 33" fill="none" xmlns="http://www.w3.org/2000/svg">
<path d="M17.8973 0.788288C17.6495 0.538506 17.3548 0.34025 17.03 0.204954C16.7053 0.0696577 16.357 0 16.0052 0C15.6533 0 15.305 0.0696577 14.9803 0.204954C14.6555 0.34025 14.3608 0.538506 14.113 0.788288L0.788288 14.113C0.538506 14.3608 0.340249 14.6555 0.204953 14.9803C0.0696571 15.305 0 15.6533 0 16.0052C0 16.357 0.0696571 16.7053 0.204953 17.03C0.340249 17.3548 0.538506 17.6495 0.788288 17.8973L14.113 31.222C14.3608 31.4718 14.6555 31.6701 14.9803 31.8054C15.305 31.9406 15.6533 32.0103 16.0052 32.0103C16.357 32.0103 16.7053 31.9406 17.03 31.8054C17.3548 31.6701 17.6495 31.4718 17.8973 31.222C18.147 30.9743 18.3453 30.6795 18.4806 30.3548C18.6159 30.03 18.6856 29.6817 18.6856 29.3299C18.6856 28.9781 18.6159 28.6298 18.4806 28.305C18.3453 27.9803 18.147 27.6855 17.8973 27.4378L6.43798 16.0052L17.8973 4.57252C18.147 4.32478 18.3453 4.03003 18.4806 3.70528C18.6159 3.38053 18.6856 3.03221 18.6856 2.6804C18.6856 2.3286 18.6159 1.98027 18.4806 1.65552C18.3453 1.33078 18.147 1.03603 17.8973 0.788288ZM47.2117 14.113L33.887 0.788288C33.6385 0.539812 33.3435 0.34271 33.0189 0.208236C32.6942 0.0737618 32.3462 0.004548 31.9948 0.004548C31.2852 0.004548 30.6046 0.286468 30.1027 0.788288C29.8543 1.03676 29.6572 1.33175 29.5227 1.6564C29.3882 1.98105 29.319 2.329 29.319 2.6804C29.319 3.39008 29.6009 4.0707 30.1027 4.57252L41.562 16.0052L30.1027 27.4378C29.853 27.6855 29.6547 27.9803 29.5194 28.305C29.3841 28.6298 29.3144 28.9781 29.3144 29.3299C29.3144 29.6817 29.3841 30.03 29.5194 30.3548C29.6547 30.6795 29.853 30.9743 30.1027 31.222C30.3505 31.4718 30.6452 31.6701 30.97 31.8054C31.2947 31.9406 31.643 32.0103 31.9948 32.0103C32.3467 32.0103 32.695 31.9406 33.0197 31.8054C33.3445 31.6701 33.6392 31.4718 33.887 31.222L47.2117 17.8973C47.4615 17.6495 47.6598 17.3548 47.795 17.03C47.9303 16.7053 48 16.357 48 16.0052C48 15.6533 47.9303 15.305 47.795 14.9803C47.6598 14.6555 47.4615 14.3608 47.2117 14.113Z" fill="#E2E8F0"/>
</svg>
