<svg width="116" height="36" viewBox="0 0 116 36" fill="none" xmlns="http://www.w3.org/2000/svg">
<path d="M60.4481 14.6267V11.5241H60.0049V8.07455C60.0049 7.47073 59.8571 7.02107 59.5616 6.72558C59.2662 6.43009 58.8101 6.28235 58.1934 6.28235C57.8722 6.28235 57.4868 6.28877 57.0371 6.30162C56.5875 6.31447 56.1314 6.33374 55.6689 6.35943C55.2192 6.37228 54.8146 6.39155 54.4548 6.41725V4.14327C54.7503 4.11757 55.0843 4.09188 55.4569 4.06618C55.8295 4.04049 56.2085 4.02764 56.5939 4.02764C56.9922 4.01479 57.3648 4.00837 57.7116 4.00837C58.7908 4.00837 59.6837 4.14969 60.3903 4.43233C61.1098 4.71497 61.6493 5.15821 62.0091 5.76203C62.3816 6.36586 62.5679 7.15597 62.5679 8.13237V14.6267H60.4481ZM57.0757 14.8965C56.3177 14.8965 55.6496 14.7616 55.0715 14.4918C54.5062 14.222 54.063 13.8366 53.7418 13.3355C53.4335 12.8345 53.2793 12.2307 53.2793 11.5241C53.2793 10.7532 53.4656 10.1237 53.8382 9.63551C54.2236 9.14731 54.7567 8.78116 55.4377 8.53706C56.1314 8.29296 56.9408 8.17091 57.8658 8.17091H60.2939V9.7704H57.8273C57.2106 9.7704 56.7352 9.92457 56.4012 10.2329C56.08 10.5284 55.9194 10.9138 55.9194 11.3892C55.9194 11.8645 56.08 12.2499 56.4012 12.5454C56.7352 12.8409 57.2106 12.9887 57.8273 12.9887C58.1998 12.9887 58.5403 12.9244 58.8486 12.796C59.1698 12.6546 59.4332 12.4234 59.6387 12.1022C59.8571 11.7682 59.9792 11.3185 60.0049 10.7532L60.6601 11.5048C60.5959 12.2371 60.416 12.8538 60.1205 13.3548C59.8379 13.8559 59.4396 14.2413 58.9257 14.5111C58.4247 14.768 57.808 14.8965 57.0757 14.8965Z" fill="#E2E8F0"/>
<path d="M65.5721 14.6267V0.55886H68.2508V14.6267H65.5721ZM64.2617 2.56304V0.55886H68.2508V2.56304H64.2617Z" fill="#E2E8F0"/>
<path d="M75.6448 14.9736C74.9125 14.9736 74.238 14.8387 73.6214 14.5689C73.0047 14.2991 72.4715 13.9201 72.0219 13.4319C71.5722 12.9437 71.2253 12.3784 70.9812 11.736C70.7371 11.0808 70.6151 10.3742 70.6151 9.61623V9.21154C70.6151 8.4664 70.7307 7.76622 70.962 7.111C71.2061 6.45579 71.5401 5.88408 71.964 5.39588C72.4009 4.90768 72.9212 4.52869 73.525 4.25889C74.1417 3.97625 74.8226 3.83493 75.5677 3.83493C76.39 3.83493 77.1094 4.0148 77.7261 4.37452C78.3556 4.7214 78.8566 5.24814 79.2292 5.95474C79.6018 6.66135 79.8073 7.54781 79.8459 8.61414L79.0558 7.68913V0.55886H81.7344V14.6267H79.6146V10.1751H80.0771C80.0386 11.2414 79.8202 12.1343 79.4219 12.8538C79.0237 13.5604 78.4969 14.0935 77.8417 14.4533C77.1993 14.8001 76.467 14.9736 75.6448 14.9736ZM76.2422 12.7189C76.769 12.7189 77.2507 12.6032 77.6875 12.372C78.1243 12.1279 78.4712 11.781 78.7282 11.3314C78.998 10.8689 79.1329 10.3293 79.1329 9.71259V8.94175C79.1329 8.32508 78.998 7.81118 78.7282 7.40007C78.4584 6.97611 78.1051 6.65492 77.6683 6.43652C77.2315 6.20527 76.7561 6.08964 76.2422 6.08964C75.6641 6.08964 75.1502 6.23096 74.7005 6.5136C74.2637 6.7834 73.9168 7.16882 73.6599 7.66986C73.4158 8.17091 73.2937 8.75546 73.2937 9.42353C73.2937 10.0916 73.4222 10.6761 73.6792 11.1772C73.9361 11.6654 74.283 12.0444 74.7198 12.3142C75.1695 12.584 75.6769 12.7189 76.2422 12.7189Z" fill="#E2E8F0"/>
<path d="M88.3679 14.6267L90.3528 4.50942H93.4362L95.7294 14.6267H93.6096L91.2778 4.56723H92.3955L90.3335 14.6267H88.3679ZM87.5778 14.6267L87.5585 12.4298H89.6976V14.6267H87.5778ZM86.4986 14.6267L83.6465 4.16254H86.2481L88.9653 14.6267H86.4986ZM94.2841 14.6267V12.4298H96.4232L96.4039 14.6267H94.2841ZM95.132 14.6267L97.5409 4.16254H99.969L97.4445 14.6267H95.132Z" fill="#E2E8F0"/>
<path d="M102.58 14.6267V4.16254H105.258V14.6267H102.58ZM101.115 6.16672V4.16254H105.258V6.16672H101.115ZM103.562 2.90992C103.036 2.90992 102.644 2.77503 102.387 2.50523C102.143 2.22259 102.021 1.87571 102.021 1.4646C102.021 1.02779 102.143 0.674486 102.387 0.404692C102.644 0.134897 103.036 0 103.562 0C104.089 0 104.474 0.134897 104.719 0.404692C104.963 0.674486 105.085 1.02779 105.085 1.4646C105.085 1.87571 104.963 2.22259 104.719 2.50523C104.474 2.77503 104.089 2.90992 103.562 2.90992Z" fill="#E2E8F0"/>
<path d="M67.6096 36V21.9514H68.7658V26.326L68.4189 26.3645C68.4703 25.3367 68.6887 24.4695 69.0741 23.7629C69.4724 23.0563 70.0056 22.5231 70.6736 22.1634C71.3546 21.7908 72.1125 21.6046 72.9476 21.6046C73.6928 21.6046 74.3673 21.7523 74.9711 22.0478C75.5877 22.3304 76.1081 22.7223 76.532 23.2233C76.9688 23.7115 77.2964 24.2768 77.5149 24.9192C77.7461 25.5487 77.8617 26.2103 77.8617 26.9041V27.1739C77.8617 27.8676 77.7461 28.5357 77.5149 29.1781C77.2836 29.8076 76.9496 30.3729 76.5128 30.8739C76.0888 31.3621 75.5685 31.754 74.9518 32.0494C74.348 32.3321 73.6671 32.4734 72.9091 32.4734C72.0997 32.4734 71.3546 32.2935 70.6736 31.9338C70.0056 31.5612 69.4596 31.0152 69.0356 30.2958C68.6245 29.5763 68.3997 28.6899 68.3611 27.6364L69.0549 29.0817V36H67.6096ZM72.7164 31.2015C73.4872 31.2015 74.1488 31.0217 74.7013 30.6619C75.2537 30.2894 75.6777 29.7883 75.9732 29.1588C76.2687 28.5164 76.4164 27.8098 76.4164 27.039C76.4164 26.2424 76.2622 25.5358 75.9539 24.9192C75.6584 24.2896 75.2344 23.795 74.682 23.4353C74.1296 23.0627 73.4744 22.8764 72.7164 22.8764C72.0226 22.8764 71.3931 23.0306 70.8278 23.3389C70.2625 23.6473 69.8129 24.0841 69.4788 24.6494C69.1577 25.2018 68.9971 25.857 68.9971 26.615V27.5593C68.9971 28.2787 69.1577 28.9147 69.4788 29.4671C69.8129 30.0067 70.2625 30.4307 70.8278 30.739C71.3931 31.0474 72.0226 31.2015 72.7164 31.2015Z" fill="#E2E8F0"/>
<path d="M84.3097 32.4349C83.0892 32.4349 82.1578 32.043 81.5154 31.2593C80.873 30.4628 80.5518 29.3579 80.5518 27.9447V21.9322H81.9779V28.2338C81.9779 29.1203 82.2092 29.8269 82.6717 30.3536C83.147 30.8675 83.8022 31.1244 84.6373 31.1244C85.5109 31.1244 86.2047 30.8482 86.7186 30.2958C87.2453 29.7433 87.5087 29.0046 87.5087 28.0796V21.9322H88.954V32.1458H87.7977V27.8869H88.029C88.029 28.8376 87.8941 29.6534 87.6243 30.3343C87.3545 31.0024 86.9498 31.5227 86.4102 31.8953C85.8706 32.255 85.1897 32.4349 84.3675 32.4349H84.3097Z" fill="#E2E8F0"/>
<path d="M96.4334 32.2614C95.7268 32.2614 95.1166 32.1586 94.6027 31.9531C94.0888 31.7475 93.6905 31.4007 93.4079 30.9125C93.1252 30.4114 92.9839 29.7433 92.9839 28.9083V18.7332H94.3714V29.1202C94.3714 29.7112 94.532 30.1673 94.8532 30.4885C95.1744 30.7968 95.6305 30.951 96.2214 30.951H98.0522V32.2614H96.4334ZM91.1532 23.0499V21.9514H98.0522V23.0499H91.1532Z" fill="#E2E8F0"/>
<path d="M100.845 32.1458V21.9514H102.001V26.2103H101.885C101.885 24.72 102.213 23.6216 102.868 22.915C103.523 22.1955 104.551 21.8358 105.951 21.8358H106.279V23.1462H105.682C104.577 23.1462 103.735 23.4353 103.157 24.0134C102.579 24.5787 102.29 25.4138 102.29 26.5187V32.1458H100.845Z" fill="#E2E8F0"/>
<path d="M114.785 32.1458V29.0817H114.553V25.4588C114.553 24.7008 114.354 24.1226 113.956 23.7244C113.558 23.3133 112.941 23.1077 112.106 23.1077C111.72 23.1077 111.329 23.1141 110.93 23.127C110.545 23.1398 110.172 23.1591 109.813 23.1848C109.466 23.1976 109.157 23.2169 108.888 23.2426V21.9707C109.17 21.945 109.459 21.9193 109.755 21.8936C110.05 21.8679 110.352 21.8551 110.661 21.8551C110.982 21.8422 111.29 21.8358 111.586 21.8358C112.626 21.8358 113.461 21.9643 114.091 22.2212C114.733 22.4782 115.202 22.8829 115.498 23.4353C115.793 23.9749 115.941 24.6943 115.941 25.5937V32.1458H114.785ZM111.335 32.4156C110.616 32.4156 109.98 32.2871 109.427 32.0302C108.875 31.7732 108.444 31.4007 108.136 30.9125C107.841 30.4243 107.693 29.8333 107.693 29.1395C107.693 28.4586 107.847 27.8805 108.155 27.4051C108.476 26.9298 108.933 26.5701 109.524 26.326C110.127 26.069 110.853 25.9405 111.701 25.9405H114.688V27.039H111.605C110.795 27.039 110.172 27.2381 109.736 27.6364C109.312 28.0218 109.1 28.5293 109.1 29.1588C109.1 29.8012 109.324 30.3151 109.774 30.7005C110.224 31.073 110.834 31.2593 111.605 31.2593C112.08 31.2593 112.536 31.1758 112.973 31.0088C113.41 30.8289 113.776 30.5335 114.072 30.1223C114.367 29.6984 114.528 29.1203 114.553 28.388L114.977 28.9854C114.926 29.7433 114.746 30.3793 114.438 30.8932C114.129 31.3942 113.712 31.7732 113.185 32.0302C112.658 32.2871 112.042 32.4156 111.335 32.4156Z" fill="#E2E8F0"/>
<path fill-rule="evenodd" clip-rule="evenodd" d="M29.1538 1.04508C18.7829 1.14843 17.0779 1.17181 17.2268 1.20883C17.3159 1.23092 17.6437 1.28977 17.9554 1.33962C20.8796 1.80728 23.785 3.10825 26.2843 5.06919C26.9902 5.62308 28.5001 7.11973 29.0589 7.81946C30.4887 9.61001 31.5204 11.5004 32.1927 13.5612C32.8 15.4225 33.0231 16.835 33.1211 19.437C33.1859 21.1596 33.3008 22.1878 33.5704 23.4588C33.9153 25.085 34.3356 26.2958 35.0646 27.7643C35.8349 29.3157 36.6482 30.4401 37.7796 31.5175C38.9899 32.6701 40.2303 33.3821 41.7554 33.7998L42.376 33.9698L49.2 33.9845C52.9531 33.9927 56.0131 33.9894 56 33.9772C55.9868 33.965 55.7575 33.9016 55.4903 33.8364C53.5734 33.3682 51.8332 32.1973 50.3616 30.3856C49.2963 29.0741 48.3621 27.3002 47.7555 25.4372C47.1191 23.4825 46.8626 21.8755 46.7733 19.2852C46.7115 17.492 46.6543 16.7425 46.4977 15.6742C45.5852 9.45086 42.2629 4.27451 37.7979 2.11959C36.5159 1.50086 35.1905 1.141 33.8303 1.0423C33.4548 1.01507 33.0746 0.996289 32.9856 1.00062C32.8965 1.00496 31.1722 1.02496 29.1538 1.04508ZM13.53 4.36845C10.546 4.64507 7.58297 5.87114 5.35381 7.75157C2.16639 10.4404 0.292125 14.1175 0.0303788 18.1954C-0.249285 22.5527 1.4131 26.8248 4.55681 29.8278C6.89822 32.0643 9.82038 33.4487 13.0983 33.8744C13.6993 33.9524 14.9576 33.9641 24.6409 33.981L35.509 34L35.0086 33.4767C34.7334 33.1888 34.4149 32.833 34.3007 32.6859C34.1865 32.5388 33.9957 32.298 33.8768 32.1509C32.5475 30.5074 31.2473 27.8046 30.5869 25.312C30.0585 23.3177 29.8673 21.8604 29.7765 19.1365C29.7195 17.4256 29.5931 16.477 29.2627 15.2807C28.9695 14.2191 28.7346 13.5906 28.2858 12.6661C27.0727 10.1674 25.2405 8.12096 22.8641 6.6104C22.3462 6.28119 22.2694 6.23802 21.5983 5.89912C19.1728 4.67444 16.2372 4.1175 13.53 4.36845ZM15.5328 10.4315C16.2499 10.6338 16.8797 11.1114 17.2539 11.7368C17.7542 12.573 17.7536 13.7758 17.2524 14.6007C16.8894 15.1983 16.1691 15.7312 15.4729 15.9173C15.3393 15.953 15.0357 15.9822 14.7983 15.9822C14.5608 15.9822 14.2572 15.953 14.1237 15.9173C13.4275 15.7312 12.7071 15.1983 12.3441 14.6007C11.843 13.7758 11.8423 12.573 12.3426 11.7368C12.7944 10.9817 13.6249 10.4482 14.5284 10.3326C14.7621 10.3027 15.2446 10.3502 15.5328 10.4315ZM15.7855 20.025C16.6424 20.3477 17.3574 21.1339 17.5475 21.9622C17.7183 22.7065 17.6081 23.516 17.2243 24.3364C16.9337 24.9576 16.6493 25.3484 16.0702 25.9216C15.3093 26.6748 14.5902 27.1297 13.4872 27.5556C12.9014 27.7818 12.7205 27.8295 12.7205 27.7576C12.7205 27.7393 13.0059 27.4315 13.3546 27.0737C14.0231 26.388 14.3617 25.8818 14.3295 25.6161C14.3149 25.4948 14.2725 25.4654 14.0202 25.4016C13.1113 25.1721 12.2387 24.2754 12.0458 23.3727C11.7743 22.1022 12.2218 20.9845 13.2771 20.2981C13.4496 20.1859 13.7167 20.0524 13.8707 20.0015C14.443 19.8124 15.2473 19.8223 15.7855 20.025Z" fill="#E2E8F0"/>
</svg>
