<svg width="56" height="33" viewBox="0 0 56 33" fill="none" xmlns="http://www.w3.org/2000/svg">
<path fill-rule="evenodd" clip-rule="evenodd" d="M29.1538 0.0450782C18.7829 0.148432 17.0779 0.171808 17.2268 0.208827C17.3159 0.230921 17.6437 0.289767 17.9554 0.339625C20.8796 0.807284 23.785 2.10825 26.2843 4.06919C26.9902 4.62308 28.5001 6.11973 29.0589 6.81946C30.4887 8.61001 31.5204 10.5004 32.1927 12.5612C32.8 14.4225 33.0231 15.835 33.1211 18.437C33.1859 20.1596 33.3008 21.1878 33.5704 22.4588C33.9153 24.085 34.3356 25.2958 35.0646 26.7643C35.8349 28.3157 36.6482 29.4401 37.7796 30.5175C38.9899 31.6701 40.2303 32.3821 41.7554 32.7998L42.376 32.9698L49.2 32.9845C52.9531 32.9927 56.0131 32.9894 56 32.9772C55.9868 32.965 55.7575 32.9016 55.4903 32.8364C53.5734 32.3682 51.8332 31.1973 50.3616 29.3856C49.2963 28.0741 48.3621 26.3002 47.7555 24.4372C47.1191 22.4825 46.8626 20.8755 46.7733 18.2852C46.7115 16.492 46.6543 15.7425 46.4977 14.6742C45.5852 8.45086 42.2629 3.27451 37.7979 1.11959C36.5159 0.500862 35.1905 0.140996 33.8303 0.0422963C33.4548 0.015067 33.0746 -0.00371119 32.9856 0.000621969C32.8965 0.00495512 31.1722 0.0249638 29.1538 0.0450782ZM13.53 3.36845C10.546 3.64507 7.58297 4.87114 5.35381 6.75157C2.16639 9.44037 0.292125 13.1175 0.0303788 17.1954C-0.249285 21.5527 1.4131 25.8248 4.55681 28.8278C6.89822 31.0643 9.82038 32.4487 13.0983 32.8744C13.6993 32.9524 14.9576 32.9641 24.6409 32.981L35.509 33L35.0086 32.4767C34.7334 32.1888 34.4149 31.833 34.3007 31.6859C34.1865 31.5388 33.9957 31.298 33.8768 31.1509C32.5475 29.5074 31.2473 26.8046 30.5869 24.312C30.0585 22.3177 29.8673 20.8604 29.7765 18.1365C29.7195 16.4256 29.5931 15.477 29.2627 14.2807C28.9695 13.2191 28.7346 12.5906 28.2858 11.6661C27.0727 9.16744 25.2405 7.12096 22.8641 5.6104C22.3462 5.28119 22.2694 5.23802 21.5983 4.89912C19.1728 3.67444 16.2372 3.1175 13.53 3.36845ZM15.5328 9.43155C16.2499 9.63376 16.8797 10.1114 17.2539 10.7368C17.7542 11.573 17.7536 12.7758 17.2524 13.6007C16.8894 14.1983 16.1691 14.7312 15.4729 14.9173C15.3393 14.953 15.0357 14.9822 14.7983 14.9822C14.5608 14.9822 14.2572 14.953 14.1237 14.9173C13.4275 14.7312 12.7071 14.1983 12.3441 13.6007C11.843 12.7758 11.8423 11.573 12.3426 10.7368C12.7944 9.9817 13.6249 9.44818 14.5284 9.33258C14.7621 9.30273 15.2446 9.35023 15.5328 9.43155ZM15.7855 19.025C16.6424 19.3477 17.3574 20.1339 17.5475 20.9622C17.7183 21.7065 17.6081 22.516 17.2243 23.3364C16.9337 23.9576 16.6493 24.3484 16.0702 24.9216C15.3093 25.6748 14.5902 26.1297 13.4872 26.5556C12.9014 26.7818 12.7205 26.8295 12.7205 26.7576C12.7205 26.7393 13.0059 26.4315 13.3546 26.0737C14.0231 25.388 14.3617 24.8818 14.3295 24.6161C14.3149 24.4948 14.2725 24.4654 14.0202 24.4016C13.1113 24.1721 12.2387 23.2754 12.0458 22.3727C11.7743 21.1022 12.2218 19.9845 13.2771 19.2981C13.4496 19.1859 13.7167 19.0524 13.8707 19.0015C14.443 18.8124 15.2473 18.8223 15.7855 19.025Z" fill="#E2E8F0"/>
</svg>
