<svg width="62" height="69" viewBox="0 0 62 69" fill="none" xmlns="http://www.w3.org/2000/svg">
<path d="M58.8646 15.2926L33.9527 0.827393C32.3816 -0.0674643 30.336 -0.0674643 28.7524 0.827393L3.57441 15.2926C1.95305 16.2253 0.805664 17.9783 0.805664 19.8533V48.7452C0.805664 50.6202 1.98299 52.3738 3.60435 53.3116L10.2565 57.0898C13.4359 58.6558 14.5596 58.6558 16.0064 58.6558C20.714 58.6558 23.4031 55.8091 23.4031 50.8439V22.3203C23.4031 21.9175 23.1935 21.3182 22.798 21.3182H19.6214C19.2192 21.3182 18.3187 21.9175 18.3187 22.3198V50.8434C18.3187 53.0443 16.3278 55.2346 12.6072 53.3743L5.73359 49.4124C5.49406 49.2824 5.32514 49.0209 5.32514 48.7452V19.8533C5.32514 19.581 5.63868 19.3075 5.87991 19.168L30.9766 4.7277C31.211 4.59494 31.5556 4.59494 31.7895 4.7277L56.58 19.1646C56.8173 19.3075 56.7337 19.5725 56.7337 19.8533V48.7452C56.7337 49.0209 56.8371 49.2892 56.6026 49.422L31.6969 63.8708C31.4833 63.999 31.2184 63.999 30.9845 63.8708L24.5968 60.058C24.4041 59.9462 24.1753 59.906 23.9906 60.0094C22.2133 61.0167 21.8857 61.1506 20.2185 61.7285C19.8084 61.8715 19.2033 62.1195 20.4502 62.8183L28.8101 67.7637C29.6106 68.227 30.5201 68.4676 31.4353 68.4676C32.3629 68.4676 33.2714 68.227 34.0719 67.7637L58.864 53.3116C60.4854 52.367 61.2537 50.6202 61.2537 48.7452V19.8533C61.2537 17.9783 60.4854 16.2298 58.8646 15.2926ZM39.1704 44.167C32.546 44.167 31.0868 42.3394 30.6003 39.0452C30.5438 38.6905 30.2427 38.2662 29.8817 38.2662H26.6441C26.2436 38.2662 25.9215 38.7521 25.9215 39.1509C25.9215 43.3687 28.2146 48.4791 39.171 48.4791C47.1021 48.4791 51.6493 45.3974 51.6493 39.9435C51.6493 34.5359 47.9958 33.1168 40.3042 32.0988C32.5296 31.0712 31.7398 30.552 31.7398 28.7307C31.7398 27.2291 32.4087 25.2264 38.1654 25.2264C43.3091 25.2264 45.205 26.3303 45.9852 29.7973C46.0519 30.1232 46.3496 30.3571 46.6857 30.3571H49.9364C50.1364 30.3571 50.3273 30.2763 50.4674 30.1334C50.603 29.9797 50.6747 29.7871 50.6567 29.5803C50.1533 23.6101 46.1869 20.8278 38.1648 20.8278C31.0291 20.8278 26.7723 23.8412 26.7723 28.8922C26.7723 34.371 31.0077 35.885 37.8575 36.5624C46.0519 37.3657 46.6891 38.5634 46.6891 40.1751C46.6891 42.9744 44.4418 44.167 39.1704 44.167Z" fill="#E2E8F0"/>
</svg>
