<svg width="74" height="65" viewBox="0 0 74 65" fill="none" xmlns="http://www.w3.org/2000/svg">
<path d="M37.0016 38.924C40.6381 38.924 43.5861 35.976 43.5861 32.3394C43.5861 28.7029 40.6381 25.7549 37.0016 25.7549C33.365 25.7549 30.417 28.7029 30.417 32.3394C30.417 35.976 33.365 38.924 37.0016 38.924Z" fill="#E2E8F0"/>
<path d="M62.0108 21.4806C60.7401 21.0186 59.4117 20.5565 58.0254 20.1522C58.372 18.766 58.6608 17.3797 58.8918 16.0513C60.1048 8.42704 58.7763 3.05542 55.0797 0.976089C53.9823 0.340737 52.7693 0.0519409 51.3831 0.0519409C47.34 0.0519409 42.1994 3.05542 37.0011 8.08048C31.8027 3.05542 26.6621 0.0519409 22.619 0.0519409C21.2328 0.0519409 20.0198 0.340737 18.9224 0.976089C15.2258 3.11318 13.8973 8.4848 15.1103 16.0513C15.3413 17.3797 15.6301 18.766 15.9767 20.1522C14.5905 20.5565 13.262 20.9608 11.9913 21.4806C4.77138 24.2531 0.84375 28.0652 0.84375 32.3394C0.84375 36.6136 4.82914 40.4257 11.9913 43.1981C13.262 43.6602 14.5905 44.1223 15.9767 44.5266C15.6301 45.9128 15.3413 47.299 15.1103 48.6275C13.8973 56.2517 15.2258 61.6233 18.9224 63.7027C20.0198 64.338 21.2328 64.6268 22.619 64.6268C26.7199 64.6268 31.8605 61.6233 37.0011 56.5983C42.1994 61.6233 47.34 64.6268 51.3831 64.6268C52.7693 64.6268 53.9823 64.338 55.0797 63.7027C58.7763 61.5656 60.1048 56.194 58.8918 48.6275C58.6608 47.299 58.372 45.9128 58.0254 44.5266C59.4117 44.1223 60.7401 43.718 62.0108 43.1981C69.2307 40.4257 73.1584 36.6136 73.1584 32.3394C73.1584 28.0652 69.2307 24.2531 62.0108 21.4806ZM53.4625 3.86405C55.8306 5.25028 56.6392 9.52446 55.6573 15.5892C55.484 16.8021 55.1952 18.0728 54.8487 19.4013C51.8452 18.7082 48.6684 18.2461 45.3184 17.9573C43.3546 15.1849 41.333 12.7012 39.3114 10.4486C43.5856 6.23218 47.9176 3.34422 51.4409 3.34422C52.1918 3.34422 52.8849 3.5175 53.4625 3.86405ZM46.9934 38.1153C45.9538 39.9636 44.7408 41.8119 43.4701 43.6602C41.333 43.8335 39.1959 43.8912 37.0011 43.8912C34.7485 43.8912 32.6114 43.8335 30.532 43.6602C29.2613 41.8119 28.1061 39.9636 27.0665 38.1153C25.969 36.2093 24.9294 34.2454 24.0052 32.3394C24.9294 30.4333 25.969 28.4695 27.0665 26.5635C28.1061 24.7152 29.3191 22.8669 30.5898 21.0186C32.7269 20.8453 34.864 20.7875 37.0588 20.7875C39.3114 20.7875 41.4485 20.8453 43.5279 21.0186C44.7986 22.8669 45.9538 24.7152 46.9934 26.5635C48.0908 28.4695 49.1305 30.4333 50.0547 32.3394C49.0728 34.2454 48.0908 36.1515 46.9934 38.1153ZM51.7874 36.2093C52.6538 38.2308 53.3469 40.1946 53.9823 42.1585C52.0185 42.6205 49.9391 42.9671 47.7443 43.2559C48.4374 42.1585 49.1883 41.0033 49.8236 39.7903C50.5167 38.5774 51.1521 37.3644 51.7874 36.2093ZM37.0011 51.862C35.6148 50.3603 34.2864 48.743 33.0157 47.068C34.3441 47.1258 35.6726 47.1835 37.0011 47.1835C38.3295 47.1835 39.658 47.1258 40.9865 47.068C39.7157 48.743 38.3873 50.3603 37.0011 51.862ZM26.2578 43.1981C24.063 42.9093 21.9836 42.5628 20.0198 42.1007C20.6552 40.1946 21.3483 38.1731 22.2147 36.1515C22.85 37.3067 23.4854 38.5196 24.1785 39.6748C24.8716 40.9455 25.5647 42.0429 26.2578 43.1981ZM22.2147 28.4695C21.3483 26.4479 20.6552 24.4841 20.0198 22.5203C21.9836 22.0582 24.063 21.7117 26.2578 21.4229C25.5647 22.5203 24.8139 23.6755 24.1785 24.8884C23.4854 26.1014 22.85 27.3143 22.2147 28.4695ZM37.0011 12.8167C38.3873 14.3185 39.7157 15.9357 40.9865 17.6108C39.658 17.553 38.3295 17.4952 37.0011 17.4952C35.6726 17.4952 34.3441 17.553 33.0157 17.6108C34.2864 15.9357 35.6148 14.3185 37.0011 12.8167ZM49.8236 24.9462L47.7443 21.4806C49.9391 21.7694 52.0185 22.116 53.9823 22.5781C53.3469 24.4841 52.6538 26.5057 51.7874 28.5273C51.1521 27.3143 50.5167 26.1014 49.8236 24.9462ZM18.3448 15.5892C17.3629 9.52446 18.1715 5.25028 20.5397 3.86405C21.1173 3.5175 21.8104 3.34422 22.5612 3.34422C26.0268 3.34422 30.3587 6.17443 34.6907 10.4486C32.6691 12.6435 30.6475 15.1849 28.6837 17.9573C25.3337 18.2461 22.1569 18.7659 19.1534 19.4013C18.8069 18.0728 18.5759 16.8021 18.3448 15.5892ZM4.07827 32.3394C4.07827 29.6247 7.37055 26.7367 13.1465 24.5996C14.3017 24.1376 15.5724 23.7332 16.8431 23.3867C17.7672 26.2747 18.9224 29.3359 20.3086 32.3971C18.9224 35.4584 17.7095 38.4619 16.8431 41.3498C8.87229 39.0395 4.07827 35.5739 4.07827 32.3394ZM20.5397 60.8147C18.1715 59.4285 17.3629 55.1543 18.3448 49.0896C18.5181 47.8766 18.8069 46.6059 19.1534 45.2775C22.1569 45.9706 25.3337 46.4326 28.6837 46.7214C30.6475 49.4939 32.6691 51.9775 34.6907 54.2302C30.4165 58.4466 26.0846 61.3345 22.5612 61.3345C21.8104 61.3345 21.1173 61.1613 20.5397 60.8147ZM55.6573 49.0896C56.6392 55.1543 55.8306 59.4285 53.4625 60.8147C52.8849 61.1613 52.1918 61.3345 51.4409 61.3345C47.9753 61.3345 43.6434 58.5043 39.3114 54.2302C41.333 52.0353 43.3546 49.4939 45.3184 46.7214C48.6684 46.4326 51.8452 45.9128 54.8487 45.2775C55.1952 46.6059 55.4263 47.8766 55.6573 49.0896ZM60.8556 40.0791C59.7005 40.5412 58.4298 40.9455 57.1591 41.2921C56.2349 38.4041 55.0797 35.3429 53.6935 32.2816C55.0797 29.2204 56.2927 26.2169 57.1591 23.3289C65.1298 25.6393 69.9239 29.1049 69.9239 32.3394C69.9239 35.0541 66.5738 37.942 60.8556 40.0791Z" fill="#E2E8F0"/>
</svg>
