<svg width="70" height="85" viewBox="0 0 70 85" fill="none" xmlns="http://www.w3.org/2000/svg">
<g clip-path="url(#clip0_1487_364)">
<path d="M65.505 11.1316C57.7272 -0.0713031 42.243 -3.35367 31.1115 3.71055L11.4886 16.2692C6.13696 19.6229 2.42646 25.1173 1.35613 31.3252C0.428502 36.5342 1.21341 41.8859 3.71087 46.524C1.99833 49.0928 0.856636 51.9471 0.357146 54.944C-0.784546 61.2947 0.713925 67.8594 4.42442 73.0684C12.2736 84.2712 27.6864 87.5536 38.8179 80.4894L58.4407 68.0021C63.7924 64.6484 67.5029 59.154 68.5732 52.946C69.5009 47.7371 68.716 42.3854 66.2185 37.7473C67.9311 35.1784 69.0727 32.3242 69.5722 29.3273C70.7853 22.9053 69.2868 16.3405 65.505 11.1316Z" fill="#868686"/>
<path d="M29.1841 74.1386C22.8334 75.7798 16.1973 73.2823 12.4868 67.9306C10.2034 64.791 9.34715 60.8664 9.98936 57.0132C10.1321 56.371 10.2748 55.8002 10.4175 55.158L10.7743 54.0163L11.7733 54.7298C14.128 56.4424 16.6968 57.7268 19.4797 58.583L20.1932 58.7971L20.1219 59.5107C20.0505 60.5096 20.3359 61.58 20.9068 62.4362C22.0485 64.0774 24.0464 64.8623 25.973 64.3628C26.4012 64.2201 26.8293 64.0774 27.1861 63.8634L46.7376 51.3761C47.7366 50.7339 48.3788 49.8063 48.5928 48.6646C48.8069 47.5229 48.5215 46.3098 47.8793 45.3822C46.7376 43.741 44.7396 43.0275 42.813 43.527C42.3849 43.6697 41.9567 43.8124 41.6 44.0265L34.1076 48.8073C32.8946 49.5922 31.5388 50.1631 30.1117 50.5198C23.761 52.161 17.1249 49.6636 13.4144 44.3119C11.2024 41.1722 10.2748 37.2477 10.9883 33.3945C11.6305 29.684 13.9139 26.3302 17.1249 24.3323L36.7478 11.845C37.9608 11.0601 39.3166 10.4892 40.7437 10.0611C47.0943 8.41993 53.7304 10.9174 57.4409 16.2691C59.7243 19.4087 60.5806 23.3333 59.9384 27.1865C59.7957 27.8287 59.653 28.3995 59.4389 29.0417L59.0821 30.1834L58.0831 29.4699C55.7284 27.7573 53.1596 26.4729 50.3767 25.6167L49.6632 25.4026L49.7345 24.689C49.8059 23.6901 49.5204 22.6197 48.9496 21.7635C47.8079 20.1223 45.8099 19.4087 43.8833 19.9082C43.4552 20.0509 43.0271 20.1936 42.6703 20.4077L23.1188 32.895C22.1198 33.5372 21.4776 34.4648 21.2636 35.6065C21.0495 36.7482 21.3349 37.9612 21.9771 38.8888C23.1188 40.53 25.1168 41.2436 27.0434 40.7441C27.4715 40.6014 27.8997 40.4587 28.2564 40.2446L35.7488 35.4638C36.9618 34.6789 38.3176 34.108 39.7447 33.6799C46.0954 32.0387 52.7315 34.5361 56.442 39.8878C58.7253 43.0275 59.5816 46.952 58.9394 50.8053C58.2972 54.5158 56.0138 57.8695 52.8028 59.8674L33.18 72.3547C31.9669 73.1396 30.6112 73.7105 29.1841 74.1386Z" fill="white"/>
</g>
<defs>
<clipPath id="clip0_1487_364">
<rect width="70" height="84.1998" fill="white"/>
</clipPath>
</defs>
</svg>
