<svg width="72" height="72" viewBox="0 0 72 72" fill="none" xmlns="http://www.w3.org/2000/svg">
<path d="M0.935547 36V71.0649H71.0654V0.935059H0.935547V36ZM43.4898 58.2838C43.8054 58.1055 44.9829 57.4247 46.0963 56.7789L48.1125 55.6101L48.5362 56.2354C49.1265 57.1354 50.4151 58.3714 51.1953 58.7834C53.4336 59.964 56.5047 59.7974 58.0183 58.4386C58.5823 57.9623 58.9359 57.2552 58.9359 56.4662C58.9359 56.4195 58.9359 56.3756 58.9329 56.3289V56.3347C58.9329 55.5224 58.8307 55.1659 58.407 54.5523C57.8635 53.775 56.7502 53.1204 53.5885 51.7471C49.9709 50.1896 48.4135 49.2224 46.9875 47.6854C46.1284 46.7094 45.4651 45.5347 45.0794 44.2432L45.0618 44.1789C44.7959 43.1883 44.7287 40.7045 44.9391 39.7052C45.6842 36.2075 48.3229 33.7734 52.1304 33.0487C53.3664 32.8149 56.2388 32.9026 57.4515 33.2036V33.2065C59.2339 33.6506 60.5898 34.4425 61.8375 35.7341C62.4833 36.4237 63.4417 37.6802 63.5177 37.9841C63.5411 38.0717 60.4904 40.1172 58.6437 41.2656C58.5765 41.3094 58.3076 41.0201 58.0096 40.576C57.1037 39.261 56.1599 38.6941 54.7135 38.5948C52.5862 38.4487 51.2187 39.562 51.2304 41.4204C51.2304 41.4526 51.2274 41.4906 51.2274 41.5286C51.2274 41.9698 51.3385 42.3847 51.5342 42.7471L51.5284 42.7325C51.9959 43.6997 52.8667 44.2812 55.5901 45.4588C60.6131 47.6211 62.7609 49.0441 64.0963 51.0691C65.5865 53.3279 65.9226 56.9367 64.9086 59.6191C63.7982 62.5354 61.0368 64.5166 57.1505 65.1711C55.9495 65.3844 53.1005 65.3523 51.8089 65.1185C48.992 64.6159 46.3213 63.225 44.6732 61.3987C44.0274 60.6886 42.768 58.8273 42.8469 58.6958C42.8791 58.649 43.1683 58.4708 43.4898 58.2838ZM16.2998 36.1899C16.2998 34.6295 16.332 33.3263 16.3758 33.2971C16.4109 33.2503 21.9657 33.2269 28.6982 33.2386L40.9563 33.2737L40.9885 36.1344L41.0118 39.0068H31.8804V64.9432H25.4226V39.0068H16.2998V36.1899Z" fill="#E2E8F0"/>
</svg>
