<svg width="24" height="24" viewBox="0 0 24 24" fill="none" xmlns="http://www.w3.org/2000/svg">
<path d="M16.9047 21.4653C17.5807 20.676 18.1727 19.736 18.6507 18.6667H20.3193C19.388 19.8267 18.225 20.7799 16.9047 21.4653ZM3.68 18.6667H5.34867C5.826 19.736 6.41867 20.676 7.09467 21.4653C5.77418 20.7801 4.61118 19.8269 3.68 18.6667ZM7.09467 2.534C6.41867 3.32333 5.826 4.26333 5.34867 5.33333H3.68C4.61131 4.17305 5.77427 3.21966 7.09467 2.534ZM20.3193 5.33333H18.6507C18.1727 4.26333 17.5807 3.32333 16.9047 2.534C18.2252 3.21945 19.3882 4.17287 20.3193 5.33333ZM19.9773 11.3333C19.916 9.66267 19.6293 8.086 19.1587 6.66667H21.2273C22.0526 8.09164 22.5338 9.6896 22.6327 11.3333H19.9773ZM19.9773 12.6667H22.6327C22.5337 14.3104 22.0525 15.9083 21.2273 17.3333H19.1587C19.6293 15.914 19.916 14.3373 19.9773 12.6667ZM12.6667 17.3333V12.6667H18.6453C18.58 14.3607 18.27 15.9447 17.7673 17.3333H12.6667ZM12.6667 22.6127V18.6667H17.1993C16.1087 20.842 14.498 22.3213 12.6667 22.6127ZM11.3333 18.6667V22.6127C9.502 22.3213 7.89067 20.842 6.8 18.6667H11.3333ZM5.354 12.6667H11.3333V17.3333H6.232C5.72933 15.9447 5.41933 14.3607 5.354 12.6667ZM4.022 11.3333H1.36667C1.46592 9.68976 1.94686 8.09194 2.77133 6.66667H4.84133C4.37 8.086 4.084 9.66267 4.022 11.3333ZM11.3333 6.66667V11.3333H5.354C5.41933 9.63933 5.72933 8.05533 6.232 6.66667H11.3333ZM11.3333 1.38667V5.33333H6.8C7.89133 3.15733 9.502 1.678 11.3333 1.38667ZM17.7673 6.66667C18.27 8.05533 18.58 9.63933 18.6453 11.3333H12.6667V6.66667H17.7673ZM12.6667 5.33333V1.38667C14.498 1.678 16.108 3.15733 17.1987 5.33333H12.6667ZM1.36667 12.6667H4.022C4.08333 14.3373 4.37 15.914 4.84133 17.3333H2.77133C1.94695 15.908 1.46602 14.3102 1.36667 12.6667ZM12 0C5.37267 0 0 5.37267 0 12C0 18.6273 5.37267 24 12 24C18.6273 24 24 18.6273 24 12C24 5.37267 18.6273 0 12 0Z" fill="#615A6F"/>
</svg>
